<svg width="21" height="21" viewBox="0 0 21 21" fill="none" xmlns="http://www.w3.org/2000/svg">
<g clip-path="url(#clip0_498_914)">
<path d="M10.8906 3H5.05729C4.61526 3 4.19134 3.17559 3.87878 3.48816C3.56622 3.80072 3.39063 4.22464 3.39062 4.66667V16.3333C3.39063 16.7754 3.56622 17.1993 3.87878 17.5118C4.19134 17.8244 4.61526 18 5.05729 18H16.724C17.166 18 17.5899 17.8244 17.9025 17.5118C18.215 17.1993 18.3906 16.7754 18.3906 16.3333V10.5" stroke="#6B7280" stroke-width="2" stroke-linecap="round" stroke-linejoin="round"/>
<path d="M16.2031 2.68769C16.5346 2.35617 16.9843 2.16992 17.4531 2.16992C17.922 2.16992 18.3716 2.35617 18.7031 2.68769C19.0346 3.01921 19.2209 3.46885 19.2209 3.93769C19.2209 4.40653 19.0346 4.85617 18.7031 5.18769L11.1923 12.6994C10.9944 12.8971 10.75 13.0418 10.4815 13.1202L8.08729 13.8202C8.01558 13.8411 7.93957 13.8424 7.86721 13.8238C7.79485 13.8053 7.72881 13.7676 7.67599 13.7148C7.62318 13.662 7.58553 13.596 7.56699 13.5236C7.54845 13.4512 7.54971 13.3752 7.57062 13.3035L8.27062 10.9094C8.34939 10.6411 8.4944 10.3969 8.69229 10.1994L16.2031 2.68769Z" stroke="#6B7280" stroke-width="2" stroke-linecap="round" stroke-linejoin="round"/>
</g>
<defs>
<clipPath id="clip0_498_914">
<rect width="20" height="20" fill="white" transform="translate(0.890625 0.5)"/>
</clipPath>
</defs>
</svg>
