<svg width="20" height="20" viewBox="0 0 20 20" fill="none" xmlns="http://www.w3.org/2000/svg">
<path d="M16.6667 6.66699H3.33333C2.8731 6.66699 2.5 7.04009 2.5 7.50033V9.16699C2.5 9.62723 2.8731 10.0003 3.33333 10.0003H16.6667C17.1269 10.0003 17.5 9.62723 17.5 9.16699V7.50033C17.5 7.04009 17.1269 6.66699 16.6667 6.66699Z" stroke="#6B7280" stroke-width="2" stroke-linecap="round" stroke-linejoin="round"/>
<path d="M10 6.66699V17.5003" stroke="#6B7280" stroke-width="2" stroke-linecap="round" stroke-linejoin="round"/>
<path d="M15.8333 10V15.8333C15.8333 16.2754 15.6577 16.6993 15.3451 17.0118C15.0326 17.3244 14.6087 17.5 14.1666 17.5H5.83329C5.39127 17.5 4.96734 17.3244 4.65478 17.0118C4.34222 16.6993 4.16663 16.2754 4.16663 15.8333V10" stroke="#6B7280" stroke-width="2" stroke-linecap="round" stroke-linejoin="round"/>
<path d="M6.24996 6.66703C5.69743 6.66703 5.16752 6.44754 4.77682 6.05684C4.38612 5.66614 4.16663 5.13623 4.16663 4.5837C4.16663 4.03116 4.38612 3.50126 4.77682 3.11056C5.16752 2.71986 5.69743 2.50036 6.24996 2.50036C7.05386 2.48636 7.84165 2.87641 8.51057 3.61966C9.1795 4.36292 9.69852 5.42487 9.99996 6.66703C10.3014 5.42487 10.8204 4.36292 11.4893 3.61966C12.1583 2.87641 12.9461 2.48636 13.75 2.50036C14.3025 2.50036 14.8324 2.71986 15.2231 3.11056C15.6138 3.50126 15.8333 4.03116 15.8333 4.5837C15.8333 5.13623 15.6138 5.66614 15.2231 6.05684C14.8324 6.44754 14.3025 6.66703 13.75 6.66703" stroke="#6B7280" stroke-width="2" stroke-linecap="round" stroke-linejoin="round"/>
</svg>
