<svg width="20" height="20" viewBox="0 0 20 20" fill="none" xmlns="http://www.w3.org/2000/svg">
<path d="M8.55664 17.5C8.70293 17.7533 8.91332 17.9637 9.16668 18.11C9.42003 18.2563 9.70743 18.3333 9.99997 18.3333C10.2925 18.3333 10.5799 18.2563 10.8333 18.11C11.0866 17.9637 11.297 17.7533 11.4433 17.5" stroke="#6B7280" stroke-width="2" stroke-linecap="round" stroke-linejoin="round"/>
<path d="M2.71833 12.772C2.60947 12.8913 2.53763 13.0397 2.51155 13.1991C2.48547 13.3585 2.50627 13.522 2.57142 13.6698C2.63658 13.8176 2.74328 13.9433 2.87855 14.0316C3.01381 14.1198 3.17182 14.1669 3.33333 14.167H16.6667C16.8282 14.167 16.9862 14.1202 17.1216 14.0321C17.2569 13.944 17.3637 13.8184 17.4291 13.6708C17.4944 13.5231 17.5154 13.3596 17.4895 13.2001C17.4637 13.0407 17.392 12.8923 17.2833 12.7728C16.175 11.6303 15 10.4162 15 6.66699C15 5.34091 14.4732 4.06914 13.5355 3.13146C12.5979 2.19378 11.3261 1.66699 10 1.66699C8.67392 1.66699 7.40215 2.19378 6.46447 3.13146C5.52679 4.06914 5 5.34091 5 6.66699C5 10.4162 3.82417 11.6303 2.71833 12.772Z" stroke="#6B7280" stroke-width="2" stroke-linecap="round" stroke-linejoin="round"/>
</svg>
