<svg width="20" height="20" viewBox="0 0 20 20" fill="none" xmlns="http://www.w3.org/2000/svg">
<path d="M15 1.66699H5.00004C4.07957 1.66699 3.33337 2.41318 3.33337 3.33366V16.667C3.33337 17.5875 4.07957 18.3337 5.00004 18.3337H15C15.9205 18.3337 16.6667 17.5875 16.6667 16.667V3.33366C16.6667 2.41318 15.9205 1.66699 15 1.66699Z" stroke="#6B7280" stroke-width="2" stroke-linecap="round" stroke-linejoin="round"/>
<path d="M7.5 18.3333V15H12.5V18.3333" stroke="#6B7280" stroke-width="2" stroke-linecap="round" stroke-linejoin="round"/>
<path d="M6.66663 5H6.67496" stroke="#6B7280" stroke-width="2" stroke-linecap="round" stroke-linejoin="round"/>
<path d="M13.3334 5H13.3417" stroke="#6B7280" stroke-width="2" stroke-linecap="round" stroke-linejoin="round"/>
<path d="M10 5H10.0083" stroke="#6B7280" stroke-width="2" stroke-linecap="round" stroke-linejoin="round"/>
<path d="M10 8.33301H10.0083" stroke="#6B7280" stroke-width="2" stroke-linecap="round" stroke-linejoin="round"/>
<path d="M10 11.667H10.0083" stroke="#6B7280" stroke-width="2" stroke-linecap="round" stroke-linejoin="round"/>
<path d="M13.3334 8.33301H13.3417" stroke="#6B7280" stroke-width="2" stroke-linecap="round" stroke-linejoin="round"/>
<path d="M13.3334 11.667H13.3417" stroke="#6B7280" stroke-width="2" stroke-linecap="round" stroke-linejoin="round"/>
<path d="M6.66663 8.33301H6.67496" stroke="#6B7280" stroke-width="2" stroke-linecap="round" stroke-linejoin="round"/>
<path d="M6.66663 11.667H6.67496" stroke="#6B7280" stroke-width="2" stroke-linecap="round" stroke-linejoin="round"/>
</svg>
