<svg width="20" height="20" viewBox="0 0 20 20" fill="none" xmlns="http://www.w3.org/2000/svg">
<path d="M16.6667 10.8331C16.6667 14.9997 13.75 17.0831 10.2834 18.2914C10.1018 18.3529 9.90466 18.35 9.72504 18.2831C6.25004 17.0831 3.33337 14.9997 3.33337 10.8331V4.99972C3.33337 4.77871 3.42117 4.56675 3.57745 4.41047C3.73373 4.25419 3.94569 4.16639 4.16671 4.16639C5.83337 4.16639 7.91671 3.16639 9.36671 1.89972C9.54325 1.74889 9.76784 1.66602 10 1.66602C10.2322 1.66602 10.4568 1.74889 10.6334 1.89972C12.0917 3.17472 14.1667 4.16639 15.8334 4.16639C16.0544 4.16639 16.2663 4.25419 16.4226 4.41047C16.5789 4.56675 16.6667 4.77871 16.6667 4.99972V10.8331Z" stroke="#6B7280" stroke-width="2" stroke-linecap="round" stroke-linejoin="round"/>
</svg>
